<?xml version="1.0" encoding="utf-8"?>
<!-- Generator: Adobe Illustrator 16.0.0, SVG Export Plug-In . SVG Version: 6.00 Build 0)  -->
<!DOCTYPE svg PUBLIC "-//W3C//DTD SVG 1.1//EN" "http://www.w3.org/Graphics/SVG/1.1/DTD/svg11.dtd">
<svg version="1.1" id="Camada_1" xmlns="http://www.w3.org/2000/svg" xmlns:xlink="http://www.w3.org/1999/xlink" x="0px" y="0px"
	 width="128px" height="117.188px" viewBox="0 197.375 128 117.188" enable-background="new 0 197.375 128 117.188"
	 xml:space="preserve">
<path fill="#CCCCCC" d="M58.587,265.012c3.063,3,8.038,3,11.1,0l56-54.55c3.063-3,3.063-7.851,0-10.838c-3.063-3-8.037-3-11.1,0
	l-50.45,49.138l-50.45-49.138c-3.063-3-8.038-3-11.1,0s-3.063,7.851,0,10.838L58.587,265.012z M114.6,246.925l-50.462,49.138
	l-50.45-49.138c-3.063-3-8.038-3-11.1,0s-3.063,7.851,0,10.838l56,54.55c3.063,3,8.038,3,11.1,0l56-54.55
	c3.063-3,3.063-7.85,0-10.838C122.638,243.925,117.662,243.925,114.6,246.925z"/>
</svg>
