<?xml version="1.0" encoding="utf-8"?>
<!-- Generator: Adobe Illustrator 16.0.0, SVG Export Plug-In . SVG Version: 6.00 Build 0)  -->
<!DOCTYPE svg PUBLIC "-//W3C//DTD SVG 1.1//EN" "http://www.w3.org/Graphics/SVG/1.1/DTD/svg11.dtd">
<svg version="1.1" id="Camada_1" xmlns="http://www.w3.org/2000/svg" xmlns:xlink="http://www.w3.org/1999/xlink" x="0px" y="0px"
	 width="117.188px" height="127.693px" viewBox="5.544 192.122 117.188 127.693"
	 enable-background="new 5.544 192.122 117.188 127.693" xml:space="preserve">
<path fill="#CCCCCC" d="M18.632,194.419c-2.987-3.063-7.838-3.063-10.838,0s-3,8.037,0,11.1l49.138,50.45l-49.138,50.45
	c-3,3.063-3,8.037,0,11.1c2.987,3.063,7.838,3.063,10.838,0l54.55-56c3-3.063,3-8.037,0-11.1L18.632,194.419z M55.094,317.518
	c2.988,3.063,7.838,3.063,10.838,0l54.55-56c3-3.063,3-8.037,0-11.1l-54.55-56c-2.987-3.063-7.838-3.063-10.838,0s-3,8.037,0,11.1
	l49.138,50.45L55.094,306.43C52.094,309.493,52.094,314.469,55.094,317.518z"/>
</svg>
