<?xml version="1.0" encoding="utf-8"?>
<!-- Generator: Adobe Illustrator 16.0.0, SVG Export Plug-In . SVG Version: 6.00 Build 0)  -->
<!DOCTYPE svg PUBLIC "-//W3C//DTD SVG 1.1//EN" "http://www.w3.org/Graphics/SVG/1.1/DTD/svg11.dtd">
<svg version="1.1" id="Camada_1" xmlns="http://www.w3.org/2000/svg" xmlns:xlink="http://www.w3.org/1999/xlink" x="0px" y="0px"
	 width="117.188px" height="127.693px" viewBox="5.544 192.122 117.188 127.693"
	 enable-background="new 5.544 192.122 117.188 127.693" xml:space="preserve">
<path fill="#CCCCCC" d="M55.094,250.419c-3,3.063-3,8.037,0,11.1l54.55,56c3,3.063,7.851,3.063,10.838,0c3-3.063,3-8.037,0-11.1
	l-49.138-50.45l49.138-50.45c3-3.063,3-8.037,0-11.1s-7.851-3.063-10.838,0L55.094,250.419z M73.182,306.43l-49.138-50.462
	l49.138-50.45c3-3.063,3-8.037,0-11.1s-7.851-3.063-10.838,0l-54.55,56c-3,3.063-3,8.037,0,11.1l54.55,56
	c3,3.063,7.85,3.063,10.838,0C76.182,314.469,76.182,309.493,73.182,306.43z"/>
</svg>
